<?xml version="1.0" standalone="no"?>
<!DOCTYPE svg PUBLIC "-//W3C//DTD SVG 20010904//EN"
 "http://www.w3.org/TR/2001/REC-SVG-20010904/DTD/svg10.dtd">
<svg version="1.0" xmlns="http://www.w3.org/2000/svg"
 width="130.000000pt" height="130.000000pt" viewBox="0 0 130.000000 130.000000"
 preserveAspectRatio="xMidYMid meet">
<metadata>
Created by potrace 1.11, written by Peter Selinger 2001-2013
</metadata>
<g transform="translate(0.000000,130.000000) scale(0.100000,-0.100000)"
fill="#000000" stroke="none">
<path d="M564 1160 c-87 -4 -101 -7 -99 -22 2 -13 -4 -16 -32 -13 -29 2 -36
-2 -44 -22 -5 -13 -13 -22 -18 -18 -5 3 -12 -3 -16 -14 -3 -10 -15 -21 -26
-24 -13 -3 -18 -10 -14 -17 4 -7 -1 -14 -13 -17 -11 -2 -23 -14 -25 -25 -3
-12 -10 -17 -17 -13 -7 4 -14 -2 -17 -14 -3 -12 -12 -21 -19 -21 -13 0 -19
-13 -15 -34 1 -5 -7 -6 -18 -3 -15 3 -21 -1 -23 -17 -2 -11 -10 -21 -18 -21
-13 0 -15 -26 -18 -167 -2 -161 -2 -168 17 -168 16 0 20 -8 23 -37 2 -26 8
-38 18 -38 9 0 15 -10 16 -25 3 -46 4 -50 19 -50 14 0 19 -16 16 -51 -1 -9 7
-19 19 -22 15 -4 20 -13 20 -36 0 -23 6 -34 23 -41 12 -5 18 -9 13 -9 -5 -1
-3 -8 4 -16 7 -8 16 -12 21 -9 8 5 13 -9 10 -28 0 -5 8 -8 19 -8 13 0 20 -7
20 -19 0 -19 9 -20 278 -18 225 2 276 5 274 15 -1 8 6 16 17 19 10 3 22 14 24
25 4 14 11 19 21 15 11 -5 16 0 16 13 0 18 10 24 32 21 4 0 6 12 6 27 -1 46 1
52 22 52 17 0 19 5 15 31 -5 25 -2 32 14 36 14 4 21 15 23 42 2 24 8 36 18 36
10 0 16 12 18 37 2 25 9 38 20 40 15 3 17 21 17 166 0 153 -2 167 -27 163 -5
0 -8 8 -8 19 0 13 -7 20 -20 20 -13 0 -20 7 -20 20 0 13 -7 20 -20 20 -13 0
-18 5 -14 15 6 13 -5 19 -22 13 -4 -2 -10 7 -15 20 -5 12 -15 22 -24 22 -8 0
-15 9 -15 20 0 14 -7 20 -21 20 -14 0 -19 5 -16 14 3 8 -5 18 -19 25 -14 6
-22 16 -19 21 7 11 -5 14 -44 12 -15 -1 -25 5 -28 18 -4 17 -17 19 -107 22
-55 2 -146 1 -202 -2z"/>
</g>
</svg>
